PathFileType	4	(X/Y/Z)	C:\Git\research_data\Projects\torsion_deformities_healthy_kinematics\simulations\P01\pre\dynamic04_l\marker_experimental.trc
DataRate	CameraRate	NumFrames	NumMarkers	Units	OrigDataRate	OrigDataStartFrame	OrigNumFrames
200	200	5	34	mm	200	348	694
Frame#	Time	C7			T10			CLAV			STRN			RBAK			LASI			RASI			SACR			LT1			LT2			LT3			LS1			LS2			LS3			LHEE			LTOE			RT1			RT2			RT3			RS1			RS2			RS3			RHEE			RTOE			LKNE			LANK			RKNE			RANK			LAJC			LKJC			RAJC			RKJC			RHJC			LHJC		
		X1	Y1	Z1	X2	Y2	Z2	X3	Y3	Z3	X4	Y4	Z4	X5	Y5	Z5	X6	Y6	Z6	X7	Y7	Z7	X8	Y8	Z8	X9	Y9	Z9	X10	Y10	Z10	X11	Y11	Z11	X12	Y12	Z12	X13	Y13	Z13	X14	Y14	Z14	X15	Y15	Z15	X16	Y16	Z16	X17	Y17	Z17	X18	Y18	Z18	X19	Y19	Z19	X20	Y20	Z20	X21	Y21	Z21	X22	Y22	Z22	X23	Y23	Z23	X24	Y24	Z24	X25	Y25	Z25	X26	Y26	Z26	X27	Y27	Z27	X28	Y28	Z28	X29	Y29	Z29	X30	Y30	Z30	X31	Y31	Z31	X32	Y32	Z32	X33	Y33	Z33	X34	Y34	Z34	

348	1.735000	114.089561	1005.797119	-331.814758	98.192482	827.193481	-342.098206	231.860809	965.921997	-343.638611	285.760162	841.439941	-340.867554	100.764641	941.369263	-235.555679	239.126160	665.544495	-436.425446	217.206573	656.823975	-230.839111	76.392059	717.907532	-348.105072	263.081268	502.300110	-464.591187	233.659210	409.436829	-469.592316	357.611328	445.438934	-406.140900	316.118195	259.105713	-436.786163	245.027267	171.361420	-480.096893	362.730103	181.182068	-401.412476	255.437988	42.597610	-395.114899	395.109772	43.736477	-362.102081	132.005005	494.403870	-192.355209	63.694366	430.022888	-210.440231	199.171188	394.091705	-184.443405	53.773346	274.957123	-193.884399	-66.495155	301.095459	-185.158981	17.984667	185.764084	-199.850662	-163.382721	183.176315	-245.457367	-97.245735	53.366917	-265.227509	293.696930	354.011444	-424.660004	316.233551	37.515427	-408.173279	117.417870	323.817810	-208.062576	-141.305817	139.686798	-214.890961	306.651337	37.080242	-375.662506	288.877869	351.076599	-373.485535	-134.687790	140.547272	-251.157333	128.566711	317.105713	-260.293701	149.465881	606.720218	-268.248864	165.479311	613.091023	-418.440665	
349	1.740000	121.121811	1006.519531	-332.486755	105.131081	827.888611	-342.233398	238.944077	966.417969	-343.664185	292.625793	841.827393	-340.471436	107.209846	942.287964	-236.220535	245.598068	666.869263	-437.077332	224.288757	656.602661	-231.132935	83.118782	718.128662	-347.761169	270.321808	503.496155	-464.592377	241.057236	410.755585	-470.791718	364.220093	446.556671	-404.969025	321.334625	259.006744	-437.311737	249.674973	172.365036	-482.433929	365.984497	180.216476	-400.881500	255.888306	43.103542	-395.600861	395.416992	43.450859	-362.654572	141.777588	494.252289	-192.220001	74.725594	428.505096	-210.123123	210.737778	395.210388	-183.591019	66.156990	275.537933	-192.969772	-53.630341	303.939819	-184.416779	28.731535	186.962357	-198.976288	-152.491089	187.916199	-244.935745	-88.793015	56.596020	-264.278229	300.759949	355.041382	-425.145660	317.200745	37.421673	-408.958038	130.367737	323.343933	-207.027283	-131.351685	143.881424	-214.232544	306.875244	37.117035	-376.674194	295.149017	351.759155	-374.073090	-124.666985	144.612442	-250.489517	141.776306	316.553589	-259.192169	156.561989	606.484895	-268.763537	172.126947	613.983928	-419.191484	
350	1.745000	128.125381	1007.343567	-333.099823	112.008766	828.693420	-342.320770	245.975098	966.998718	-343.610016	299.412811	842.297729	-340.019653	113.606750	943.315002	-236.838074	251.904999	668.337830	-437.805603	231.266159	656.496216	-231.340530	89.796669	718.489380	-347.392700	277.204010	504.628845	-464.720764	247.923141	412.051392	-472.007233	370.485687	447.423187	-404.214233	325.952026	258.797943	-437.996948	253.569763	173.082230	-484.421631	368.825714	179.232407	-400.696655	256.249969	43.522507	-396.081543	395.577820	43.370205	-363.230316	151.463120	494.303009	-192.072021	85.713196	427.209656	-209.880676	222.185928	396.595093	-182.685455	78.776337	276.235199	-192.110153	-40.532116	306.671906	-183.560989	39.866043	188.250107	-198.272339	-141.258499	192.356796	-244.443954	-79.494255	59.978008	-263.441528	307.268036	355.948761	-425.839813	317.842896	37.321232	-409.654877	143.252609	323.140778	-206.042770	-120.895874	147.931381	-213.658997	306.959412	37.197144	-377.553619	301.008789	352.334595	-374.865082	-114.183243	148.605453	-249.911926	154.979324	316.297211	-258.130096	163.529003	606.334610	-269.205634	178.600498	614.981938	-419.976578	
351	1.750000	135.100555	1008.265503	-333.654022	118.828796	829.603821	-342.363892	252.951996	967.665833	-343.479858	306.125488	842.856812	-339.517944	119.956306	944.446289	-237.411484	258.064484	669.925720	-438.601959	238.146515	656.524292	-231.461441	96.434937	718.996399	-347.011139	283.695587	505.662231	-464.984863	254.189835	413.291443	-473.200989	376.383453	447.970947	-403.946106	329.954285	258.492157	-438.820160	256.693298	173.559372	-486.032288	371.264252	178.242874	-400.855652	256.527527	43.856121	-396.546936	395.624023	43.431400	-363.801666	161.055054	494.563324	-191.912476	96.646187	426.149414	-209.704163	233.505341	398.248260	-181.742950	91.604500	277.047333	-191.311371	-27.246805	309.265869	-182.611465	51.380184	189.613617	-197.735550	-129.709381	196.457733	-243.988083	-69.367035	63.428688	-262.734589	313.143494	356.691925	-426.748535	318.191376	37.207672	-410.258362	156.057739	323.216064	-205.112961	-109.953499	151.781219	-213.174423	306.939575	37.298225	-378.284241	306.410065	352.775116	-375.856659	-103.245468	152.469055	-249.427948	168.150650	316.348267	-257.113281	170.372603	606.287991	-269.566529	184.913017	616.071233	-420.782195	
352	1.755000	142.048096	1009.280762	-334.150238	125.594864	830.614807	-342.367004	259.873627	968.420105	-343.278229	312.768921	843.509216	-338.972229	126.260101	945.676880	-237.944550	264.096497	671.606812	-439.455139	244.939804	656.705566	-231.498917	103.042381	719.654358	-346.628235	289.772217	506.567596	-465.387482	259.810059	414.450226	-474.337158	381.895844	448.153870	-404.208771	333.341644	258.108826	-439.756409	259.048798	173.855637	-487.251160	373.319489	177.263977	-401.346954	256.726776	44.109741	-396.988464	395.585663	43.579411	-364.346863	170.551331	495.037109	-191.742493	107.518158	425.331696	-209.580002	244.694153	400.168671	-180.783493	104.613930	277.970306	-190.577789	-13.819822	311.697296	-181.587845	63.262634	191.037338	-197.358765	-117.868210	200.182175	-243.573456	-58.437710	66.867996	-262.171753	318.332275	357.243225	-427.865509	318.276672	37.079430	-410.773315	168.776642	323.573486	-204.239700	-98.544846	155.378006	-212.778183	306.845428	37.402809	-378.864410	311.320709	353.064392	-377.032074	-91.868713	156.146637	-249.035965	181.270004	316.713348	-256.146301	177.101610	606.364057	-269.839879	191.080896	617.237999	-421.592560	
